<svg xmlns="http://www.w3.org/2000/svg" width="182" height="182" viewBox="0 0 182 182"><defs><style>.a{fill:#8b38e3;}.b{fill:#fff;}</style></defs><g transform="translate(-1018 -611)"><rect class="a" width="182" height="182" rx="22" transform="translate(1018 611)"/><path class="b" d="M116.136-72.727H84.091a22.19,22.19,0,0,0-1.79-7.216,17.129,17.129,0,0,0-3.977-5.6,17.415,17.415,0,0,0-6.108-3.636,24.065,24.065,0,0,0-8.125-1.278,22.738,22.738,0,0,0-13.437,3.864,23.583,23.583,0,0,0-8.3,11.08,47.744,47.744,0,0,0-2.812,17.33q0,10.682,2.869,17.869a22.434,22.434,0,0,0,8.324,10.8,23.25,23.25,0,0,0,13.125,3.608A25.708,25.708,0,0,0,71.7-27.017a18,18,0,0,0,6.023-3.21A17.029,17.029,0,0,0,81.9-35.312a20.4,20.4,0,0,0,2.188-6.733l32.045.227a43.177,43.177,0,0,1-4.148,15.028A48.7,48.7,0,0,1,101.847-12.7,49.22,49.22,0,0,1,85.625-2.33a59.377,59.377,0,0,1-22.443,3.92A59.348,59.348,0,0,1,34.46-5.284,49.6,49.6,0,0,1,14.4-25.511Q7.045-38.864,7.045-58.182q0-19.432,7.5-32.756a50.313,50.313,0,0,1,20.227-20.17,59,59,0,0,1,28.409-6.847,65.287,65.287,0,0,1,20.284,3.011,49.087,49.087,0,0,1,16.25,8.778,43.806,43.806,0,0,1,11.25,14.176A51.786,51.786,0,0,1,116.136-72.727Z" transform="translate(1048 760)"/></g></svg>